<?xml version="1.0" encoding="utf-8"?>
<!-- Generator: Adobe Illustrator 16.0.4, SVG Export Plug-In . SVG Version: 6.00 Build 0)  -->
<!DOCTYPE svg PUBLIC "-//W3C//DTD SVG 1.1//EN" "http://www.w3.org/Graphics/SVG/1.1/DTD/svg11.dtd">
<svg version="1.1" id="Layer_1" xmlns="http://www.w3.org/2000/svg" xmlns:xlink="http://www.w3.org/1999/xlink" x="0px" y="0px"
	 width="758.745px" height="572.356px" viewBox="0 0 758.745 572.356" enable-background="new 0 0 758.745 572.356"
	 xml:space="preserve">
<path fill="none" d="M-17.959-17.639c264.023,0,528.045,0,792.069,0c0,204.018,0,408.036,0,612.053c-264.023,0-528.045,0-792.068,0
	C-17.958,390.396-17.958,186.378-17.959-17.639z M665.088,52.544c0-1.243,0-2.11,0-2.978c0-10,0.11-20.002-0.044-30
	c-0.082-5.347-2.431-9.954-5.929-13.89c-0.94-1.058-2.618-1.42-3.812-2.3C652.396,1.229,649.237,0,645.58,0
	C468.211,0.011,290.842,0.009,113.474,0.011c-8.227,0-16.826,6.171-18.822,13.973c-0.997,3.895-1.522,7.988-1.65,12.012
	c-0.25,7.912-0.074,15.838-0.074,23.759c0,0.85,0,1.701,0,2.486c-0.552,0.153-0.776,0.27-1.001,0.27
	c-9.12,0.017-18.241,0.043-27.361-0.01c-0.699-0.004-1.53-0.44-2.069-0.929c-3.497-3.169-6.959-6.379-10.355-9.656
	c-0.561-0.541-0.971-1.453-1.055-2.236c-0.361-3.395-0.571-6.807-0.844-10.211c-0.433-5.408-2.981-10.07-5.464-14.69
	c-1.023-1.903-2.602-3.794-4.407-4.927c-3.336-2.094-6.874-4.116-10.605-5.274c-5.44-1.688-11.08-2.906-16.722-3.711
	C9.083,0.3,4.975,0.756,0.544,0.756c0.393,6.237,0.687,12.121,1.173,17.989c0.169,2.04,0.633,4.098,1.273,6.046
	c1.435,4.371,2.878,8.641,5.494,12.642c2.807,4.293,6.3,7.445,10.731,9.41c6.307,2.796,13.039,4.112,20.005,4.099
	c1.049-0.001,2.334,0.54,3.108,1.261c2.983,2.779,5.754,5.786,8.708,8.599c1.194,1.137,1.694,2.308,1.679,3.972
	c-0.078,8.399-0.036,16.8-0.036,25.201c0,0.782,0,1.565,0,2.683c-1.173,0-2.107,0-3.042,0c-9.12,0-18.247-0.197-27.358,0.102
	c-3.429,0.112-7.058,0.85-10.158,2.263c-2.74,1.249-5.331,3.062-7.339,5.799c-2.909,3.966-4.773,7.978-4.771,12.946
	C0.04,227.693,0.043,341.619,0,455.545c-0.002,5.313,0.896,10.092,4.027,14.645c3.904,5.675,9.464,8.203,15.729,8.539
	c9.972,0.535,19.993,0.14,29.994,0.148c0.924,0.001,1.848,0.078,2.92,0.127c0,9.959,0.023,19.632-0.05,29.303
	c-0.005,0.667-0.61,1.439-1.131,1.973c-3.296,3.379-6.629,6.721-9.998,10.026c-0.532,0.522-1.277,1.067-1.973,1.143
	c-3.408,0.367-6.858,0.406-10.248,0.884c-5.629,0.794-11.079,2.179-15.443,6.209c-1.275,1.177-2.77,2.146-3.911,3.435
	c-3.529,3.99-5.095,9.038-6.595,13.945c-1.339,4.378-1.973,9.025-2.425,13.603c-0.389,3.93-0.081,7.929-0.081,11.963
	c0.68,0.079,1.071,0.185,1.454,0.16c4.528-0.297,9.069-0.477,13.577-0.968c3.629-0.396,7.272-0.952,10.809-1.835
	c5.264-1.316,10.165-3.547,14.02-7.519c2.02-2.081,4.261-4.156,5.584-6.666c3.513-6.669,4.904-13.926,4.85-21.482
	c-0.007-1.032,0.624-2.287,1.355-3.068c2.841-3.035,5.767-6.004,8.831-8.812c0.884-0.811,2.329-1.398,3.526-1.415
	c8.479-0.12,16.96-0.068,25.44-0.057c0.837,0,1.674,0.104,2.667,0.172c0,1.146,0,2.016,0,2.885c0,8.24-0.349,16.501,0.125,24.714
	c0.308,5.347,0.175,10.938,4.053,15.627c2.876,3.478,6.248,6.253,10.239,7.874c2.842,1.153,6.259,1.217,9.419,1.218
	c174.968,0.053,349.937,0.051,524.906,0.029c5.632,0,10.896-0.887,15.605-4.702c4.947-4.01,7.378-9.215,7.674-15.072
	c0.504-9.975,0.139-19.994,0.139-29.994c0-0.85,0-1.699,0-2.549c0.642-0.1,0.95-0.189,1.26-0.189c9.2-0.012,18.4-0.049,27.601,0.038
	c0.903,0.009,1.963,0.607,2.671,1.242c3.275,2.937,6.528,5.908,9.616,9.038c0.835,0.848,1.44,2.271,1.509,3.468
	c0.322,5.576,0.735,11.021,2.724,16.414c2.394,6.496,5.881,11.729,12.074,15.008c4.185,2.215,8.589,3.498,13.253,4.49
	c6.598,1.401,13.192,1.922,19.873,2.159c1.807,0.063,2.452-0.523,2.291-2.313c-0.55-6.097-1.077-12.196-1.525-18.302
	c-0.449-6.136-3.086-11.396-6.185-16.552c-4.385-7.292-11.598-10.106-19.192-12.023c-3.658-0.923-7.617-0.602-11.419-1.036
	c-1.139-0.131-2.46-0.65-3.256-1.438c-3.014-2.979-5.94-6.061-8.69-9.282c-0.886-1.038-1.569-2.619-1.593-3.964
	c-0.143-8.397-0.075-16.8-0.066-25.199c0-0.779,0.068-1.559,0.12-2.667c1.09,0,2.026,0,2.962,0c9.201,0,18.402,0.106,27.602-0.033
	c7.31-0.111,13.468-2.67,17.993-8.806c2.678-3.63,4.021-7.474,4.021-11.953c-0.022-114.886-0.019-229.771-0.019-344.657
	c0-0.64,0.084-1.293-0.014-1.918c-0.803-5.113-2.658-9.799-6.831-13.028c-4.432-3.429-9.479-5.196-15.281-5.046
	c-9.194,0.238-18.399,0.067-27.601,0.057c-0.928-0.001-1.856-0.086-2.944-0.141c0-9.947-0.022-19.62,0.049-29.292
	c0.005-0.68,0.589-1.459,1.098-2.014c3.082-3.36,6.177-6.711,9.379-9.957c0.641-0.648,1.749-1.141,2.659-1.169
	c5.833-0.181,11.478-0.826,17.086-2.869c8.684-3.164,14.471-8.655,17.632-17.402c2.114-5.85,3.081-11.866,3.868-17.916
	c0.507-3.896,0.096-7.911,0.096-11.945c-11.675-0.686-22.627,0.752-33.092,5.256c-1.461,0.629-3.084,1.093-4.295,2.056
	c-8.431,6.706-12.295,15.839-12.551,26.296c-0.112,4.608-0.97,8.055-4.785,10.839c-2.888,2.106-5.01,5.694-8.139,6.914
	c-3.134,1.222-7.094,0.341-10.691,0.35C678.047,52.555,671.74,52.544,665.088,52.544z"/>
<path fill-rule="evenodd" clip-rule="evenodd" d="M665.088,52.544c6.651,0,12.959,0.01,19.266-0.004
	c3.598-0.008,7.558,0.872,10.691-0.35c3.129-1.22,5.251-4.807,8.139-6.914c3.815-2.784,4.673-6.231,4.785-10.839
	c0.256-10.457,4.12-19.59,12.551-26.296c1.211-0.963,2.834-1.427,4.295-2.056c10.465-4.503,21.417-5.941,33.092-5.256
	c0,4.035,0.411,8.05-0.096,11.945c-0.787,6.05-1.754,12.066-3.868,17.916c-3.161,8.747-8.948,14.238-17.632,17.402
	c-5.608,2.043-11.253,2.688-17.086,2.869c-0.91,0.028-2.019,0.521-2.659,1.169c-3.202,3.245-6.297,6.597-9.379,9.957
	c-0.509,0.554-1.093,1.334-1.098,2.014c-0.071,9.672-0.049,19.345-0.049,29.292c1.088,0.054,2.017,0.139,2.944,0.141
	c9.201,0.01,18.406,0.181,27.601-0.057c5.802-0.15,10.85,1.617,15.281,5.046c4.173,3.229,6.028,7.915,6.831,13.028
	c0.098,0.625,0.014,1.278,0.014,1.918c0,114.885-0.004,229.771,0.019,344.657c0,4.479-1.343,8.323-4.021,11.953
	c-4.525,6.136-10.684,8.694-17.993,8.806c-9.199,0.14-18.4,0.033-27.602,0.033c-0.936,0-1.872,0-2.962,0
	c-0.052,1.108-0.12,1.888-0.12,2.667c-0.009,8.399-0.076,16.802,0.066,25.199c0.023,1.345,0.707,2.926,1.593,3.964
	c2.75,3.222,5.677,6.303,8.69,9.282c0.796,0.787,2.117,1.307,3.256,1.438c3.802,0.435,7.761,0.113,11.419,1.036
	c7.595,1.917,14.808,4.731,19.192,12.023c3.099,5.155,5.735,10.416,6.185,16.552c0.448,6.105,0.976,12.205,1.525,18.302
	c0.161,1.79-0.484,2.377-2.291,2.313c-6.681-0.237-13.275-0.758-19.873-2.159c-4.664-0.992-9.068-2.275-13.253-4.49
	c-6.193-3.278-9.681-8.512-12.074-15.008c-1.988-5.394-2.401-10.838-2.724-16.414c-0.068-1.196-0.674-2.62-1.509-3.468
	c-3.088-3.13-6.341-6.102-9.616-9.038c-0.708-0.635-1.768-1.233-2.671-1.242c-9.2-0.087-18.4-0.05-27.601-0.038
	c-0.31,0-0.618,0.09-1.26,0.189c0,0.85,0,1.699,0,2.549c0,10,0.365,20.02-0.139,29.994c-0.296,5.857-2.727,11.062-7.674,15.072
	c-4.709,3.815-9.974,4.702-15.605,4.702c-174.969,0.021-349.938,0.023-524.906-0.029c-3.161-0.001-6.577-0.064-9.419-1.218
	c-3.991-1.621-7.363-4.396-10.239-7.874c-3.878-4.688-3.746-10.28-4.053-15.627c-0.473-8.213-0.125-16.474-0.125-24.714
	c0-0.869,0-1.738,0-2.885c-0.993-0.067-1.83-0.172-2.667-0.172c-8.48-0.012-16.961-0.063-25.44,0.057
	c-1.197,0.017-2.642,0.604-3.526,1.415c-3.063,2.809-5.99,5.777-8.831,8.812c-0.731,0.781-1.363,2.036-1.355,3.068
	c0.054,7.557-1.336,14.813-4.85,21.482c-1.323,2.51-3.564,4.585-5.584,6.666c-3.854,3.972-8.755,6.202-14.02,7.519
	c-3.537,0.883-7.18,1.439-10.809,1.835c-4.507,0.491-9.049,0.671-13.577,0.968c-0.383,0.024-0.774-0.081-1.454-0.16
	c0-4.034-0.308-8.033,0.081-11.963c0.453-4.577,1.086-9.225,2.425-13.603c1.5-4.907,3.066-9.955,6.595-13.945
	c1.141-1.289,2.636-2.258,3.911-3.435c4.364-4.03,9.813-5.415,15.443-6.209c3.39-0.478,6.839-0.517,10.248-0.884
	c0.696-0.075,1.441-0.62,1.973-1.143c3.369-3.306,6.702-6.647,9.998-10.026c0.521-0.533,1.125-1.306,1.131-1.973
	c0.073-9.671,0.05-19.344,0.05-29.303c-1.072-0.049-1.996-0.126-2.92-0.127c-10-0.009-20.021,0.387-29.994-0.148
	c-6.265-0.336-11.825-2.864-15.729-8.539c-3.131-4.553-4.029-9.331-4.027-14.645c0.043-113.926,0.04-227.852,0.01-341.777
	c-0.001-4.968,1.862-8.98,4.771-12.946c2.009-2.738,4.6-4.551,7.339-5.799c3.101-1.413,6.729-2.151,10.158-2.263
	c9.111-0.298,18.238-0.102,27.358-0.102c0.935,0,1.869,0,3.042,0c0-1.117,0-1.9,0-2.683c0-8.401-0.042-16.802,0.036-25.201
	c0.016-1.665-0.485-2.835-1.679-3.972c-2.954-2.813-5.725-5.819-8.708-8.599c-0.774-0.721-2.059-1.263-3.108-1.261
	c-6.966,0.014-13.698-1.302-20.005-4.099c-4.431-1.965-7.925-5.117-10.731-9.41c-2.616-4.001-4.06-8.271-5.494-12.642
	c-0.64-1.948-1.104-4.007-1.273-6.046C1.231,12.877,0.937,6.993,0.544,0.756c4.431,0,8.539-0.456,12.501,0.109
	c5.642,0.805,11.282,2.023,16.722,3.711c3.731,1.158,7.269,3.18,10.605,5.274c1.805,1.133,3.384,3.024,4.407,4.927
	c2.482,4.62,5.031,9.282,5.464,14.69c0.273,3.404,0.483,6.816,0.844,10.211c0.083,0.783,0.494,1.695,1.055,2.236
	c3.396,3.277,6.858,6.487,10.355,9.656c0.54,0.489,1.371,0.924,2.069,0.929c9.12,0.054,18.241,0.027,27.361,0.01
	c0.225,0,0.449-0.117,1.001-0.27c0-0.786,0-1.636,0-2.486c0-7.92-0.177-15.847,0.074-23.759c0.127-4.023,0.653-8.117,1.65-12.012
	c1.996-7.802,10.595-13.973,18.822-13.973C290.842,0.009,468.211,0.011,645.58,0c3.657,0,6.816,1.229,9.725,3.376
	c1.193,0.88,2.871,1.242,3.812,2.3c3.498,3.936,5.847,8.543,5.929,13.89c0.154,9.998,0.044,20,0.044,30
	C665.088,50.434,665.088,51.302,665.088,52.544z M106.8,507.435c0,12.801-0.099,25.603,0.105,38.399
	c0.031,1.941,1.052,4.213,2.333,5.723c3.985,4.7,9.536,6.263,15.454,6.264c169.765,0.036,339.531,0.029,509.296,0.029
	c0.32,0,0.642,0.016,0.96-0.003c4.379-0.25,8.516-1.37,12.146-3.864c3.376-2.32,4.957-5.691,4.962-9.774
	c0.013-12.24,0.005-24.48,0.005-36.722c0-0.923,0-1.847,0-2.764c0.69-0.108,0.999-0.199,1.309-0.2
	c10.16-0.012,20.32-0.047,30.48,0.038c0.892,0.008,1.979,0.61,2.635,1.273c12.092,12.232,24.138,24.51,36.16,36.81
	c0.568,0.582,1.01,1.421,1.202,2.215c0.89,3.667,3.197,6.026,6.637,7.293c3.357,1.236,7.762-1.026,8.2-4.099
	c0.652-4.572-2.741-9.358-7.283-10.421c-0.864-0.202-1.794-0.656-2.418-1.272c-12.342-12.21-24.66-24.441-36.907-36.745
	c-0.783-0.787-1.324-2.187-1.337-3.309c-0.104-9.359-0.062-18.721-0.054-28.081c0.001-0.761,0.077-1.521,0.125-2.389
	c1.249,0,2.204,0,3.161,0c12.24,0,24.48-0.032,36.721,0.018c4.342,0.018,7.49-2.073,9.902-5.394
	c3.426-4.715,4.237-10.28,4.241-15.862c0.06-105.604,0.063-211.207-0.018-316.811c-0.003-5.045-0.788-10.012-3.46-14.648
	c-2.556-4.436-6.01-6.576-10.995-6.574c-12.24,0.006-24.48,0.001-36.721,0.001c-0.926,0-1.851,0-2.78,0
	c-0.092-0.67-0.171-0.98-0.172-1.29c-0.008-10.161-0.04-20.321,0.045-30.481c0.008-0.891,0.586-1.984,1.244-2.632
	c12.371-12.179,24.784-24.314,37.229-36.418c0.765-0.743,1.868-1.135,2.804-1.707c1.65-1.007,3.56-1.765,4.875-3.104
	c1.909-1.942,2.403-6.771,1.341-8.312c-1.768-2.563-4.243-3.197-7.123-2.625c-2.983,0.593-5.931,3.592-6.533,6.051
	c-0.319,1.308-1.029,2.69-1.963,3.65c-11.938,12.271-23.927,24.494-35.984,36.646c-0.832,0.838-2.312,1.438-3.499,1.452
	c-9.519,0.117-19.04,0.068-28.561,0.06c-0.77-0.001-1.539-0.083-2.503-0.139c0-1.167,0-2.115,0-3.063
	c0-12.64,0.021-25.281-0.015-37.921c-0.009-3.113-1.322-5.567-3.839-7.534c-5.29-4.134-11.484-5.437-17.889-5.439
	c-166.406-0.062-332.812-0.047-499.217-0.064c-5.269,0-10.415,0.299-15.385,2.41c-6.887,2.924-8.777,5.631-8.87,12.411
	c-0.167,12.158-0.047,24.32-0.047,36.481c0,0.858,0,1.716,0,2.622c-0.537,0.106-0.837,0.217-1.137,0.217
	c-10.32,0.014-20.641,0.045-30.96-0.033c-0.814-0.006-1.797-0.612-2.406-1.23C60.117,54.206,47.97,41.803,35.853,29.372
	c-0.693-0.711-1.333-1.661-1.564-2.606c-0.914-3.733-4.432-6.746-8.375-6.812c-1.064-0.018-2.369,0.021-3.163,0.592
	c-4.131,2.97-3.386,9.522,1.249,11.829c1.962,0.976,4.349,1.509,5.835,2.966c12.4,12.149,24.651,24.451,36.88,36.772
	c0.738,0.744,1.253,2.045,1.279,3.102c0.129,5.197,0.059,10.399,0.059,15.599c0,5.111,0,10.223,0,15.723c-1.312,0-2.255,0-3.198,0
	c-12.721,0-25.444-0.139-38.159,0.128c-2.313,0.049-5.349,1.128-6.743,2.814c-4.132,4.995-6.163,10.985-6.162,17.615
	c0.022,103.686,0.006,207.371,0.05,311.056c0.002,4.274,0.526,8.547,0.772,12.821c0.219,3.806,1.612,7.065,4.096,9.98
	c2.639,3.098,5.924,4.805,9.912,4.834c12.24,0.087,24.48,0.031,36.721,0.031c0.846,0,1.692,0,2.433,0
	c0.148,0.513,0.23,0.665,0.23,0.818c0.019,10.159,0.064,20.319-0.018,30.479c-0.007,0.879-0.685,1.929-1.353,2.598
	c-12.215,12.223-24.472,24.404-36.741,36.573c-0.542,0.538-1.233,0.975-1.93,1.297c-1.579,0.729-3.282,1.219-4.791,2.062
	c-2.075,1.158-3.808,6.676-2.951,8.838c1.389,3.509,5.001,4.887,8.457,3.092c2.484-1.29,4.702-2.893,5.556-5.831
	c0.355-1.221,0.763-2.617,1.611-3.474C47.835,530.158,59.882,518.104,72,506.125c0.896-0.886,2.45-1.537,3.708-1.555
	c9.519-0.127,19.04-0.072,28.56-0.062"/>
<path fill-rule="evenodd" clip-rule="evenodd" d="M650.042,495.796c0,0.17,0,0.339,0,0.509"/>
</svg>
